# xmcd
#
# Track frame offsets:
#       150
#       36983
#       51929
#       82501
#       108535
#       124496
#       146787
#       164697
#       187791
#       202156
#       223177
#       244637
#       260801
#       293369
#       322714
#
# Disc length: 4696 seconds
#
# Revision: 0
# Processed by: cddbd v1.5.1PL0 Copyright (c) Steve Scherf et al.
# Submitted via: WaveLab 4.01
#
DISCID=e012560f
DTITLE=Various Artist - Trance Charts 2003.1 CD 2
DYEAR=2003
DGENRE=Trance
TTITLE0=Dave 202 and Phil Green - Legends (Hijackers Remix)
TTITLE1=BK - Revolution (Radio Edit)
TTITLE2=Class 6 - Luv u all
TTITLE3=Armani and Ghost - Airport (Original Mix)
TTITLE4=DJ Frankie Jones - Let the beat control your body
TTITLE5=De-Progression - Celebrate life (Original Mix)
TTITLE6=R. Wood vs. Riot 303 - Impulse
TTITLE7=Ultraphaze - A new world (Brainkiller Mix)
TTITLE8=Lovejam - Lovejam (Original Cut)
TTITLE9=Lebrisc - I´ve got (the power) (A-Luison Remix)
TTITLE10=DJ Choos pres. That Mucho - Release me
TTITLE11=Chrome and Price - Voices (Radio Mix)
TTITLE12=Steve Handrixx - Immortality
TTITLE13=Marco Torrance - Living in a dream
TTITLE14=Mindmaster - Therapie
EXTD=
EXTT0=
EXTT1=
EXTT2=
EXTT3=
EXTT4=
EXTT5=
EXTT6=
EXTT7=
EXTT8=
EXTT9=
EXTT10=
EXTT11=
EXTT12=
EXTT13=
EXTT14=
PLAYORDER=
